<svg id="visual" viewBox="0 0 900 350" width="900" height="350" xmlns="http://www.w3.org/2000/svg" xmlns:xlink="http://www.w3.org/1999/xlink" version="1.1"><rect x="0" y="0" width="900" height="350" fill="#325b54"></rect><path d="M0 78L21.5 78.7C43 79.3 86 80.7 128.8 88.8C171.7 97 214.3 112 257.2 111.7C300 111.3 343 95.7 385.8 86.2C428.7 76.7 471.3 73.3 514.2 76C557 78.7 600 87.3 642.8 89.8C685.7 92.3 728.3 88.7 771.2 93.5C814 98.3 857 111.7 878.5 118.3L900 125L900 351L878.5 351C857 351 814 351 771.2 351C728.3 351 685.7 351 642.8 351C600 351 557 351 514.2 351C471.3 351 428.7 351 385.8 351C343 351 300 351 257.2 351C214.3 351 171.7 351 128.8 351C86 351 43 351 21.5 351L0 351Z" fill="#325b54"></path><path d="M0 171L21.5 163.5C43 156 86 141 128.8 143.2C171.7 145.3 214.3 164.7 257.2 167.2C300 169.7 343 155.3 385.8 151C428.7 146.7 471.3 152.3 514.2 157.5C557 162.7 600 167.3 642.8 164.8C685.7 162.3 728.3 152.7 771.2 150.5C814 148.3 857 153.7 878.5 156.3L900 159L900 351L878.5 351C857 351 814 351 771.2 351C728.3 351 685.7 351 642.8 351C600 351 557 351 514.2 351C471.3 351 428.7 351 385.8 351C343 351 300 351 257.2 351C214.3 351 171.7 351 128.8 351C86 351 43 351 21.5 351L0 351Z" fill="#597666"></path><path d="M0 163L21.5 162C43 161 86 159 128.8 163.5C171.7 168 214.3 179 257.2 189C300 199 343 208 385.8 203.7C428.7 199.3 471.3 181.7 514.2 175.3C557 169 600 174 642.8 173.2C685.7 172.3 728.3 165.7 771.2 163.3C814 161 857 163 878.5 164L900 165L900 351L878.5 351C857 351 814 351 771.2 351C728.3 351 685.7 351 642.8 351C600 351 557 351 514.2 351C471.3 351 428.7 351 385.8 351C343 351 300 351 257.2 351C214.3 351 171.7 351 128.8 351C86 351 43 351 21.5 351L0 351Z" fill="#81927c"></path><path d="M0 204L21.5 210C43 216 86 228 128.8 234.2C171.7 240.3 214.3 240.7 257.2 236.3C300 232 343 223 385.8 222.2C428.7 221.3 471.3 228.7 514.2 229C557 229.3 600 222.7 642.8 223.5C685.7 224.3 728.3 232.7 771.2 235.2C814 237.7 857 234.3 878.5 232.7L900 231L900 351L878.5 351C857 351 814 351 771.2 351C728.3 351 685.7 351 642.8 351C600 351 557 351 514.2 351C471.3 351 428.7 351 385.8 351C343 351 300 351 257.2 351C214.3 351 171.7 351 128.8 351C86 351 43 351 21.5 351L0 351Z" fill="#abae95"></path><path d="M0 269L21.5 266.7C43 264.3 86 259.7 128.8 261.7C171.7 263.7 214.3 272.3 257.2 275.3C300 278.3 343 275.7 385.8 269C428.7 262.3 471.3 251.7 514.2 246.2C557 240.7 600 240.3 642.8 246.3C685.7 252.3 728.3 264.7 771.2 269C814 273.3 857 269.7 878.5 267.8L900 266L900 351L878.5 351C857 351 814 351 771.2 351C728.3 351 685.7 351 642.8 351C600 351 557 351 514.2 351C471.3 351 428.7 351 385.8 351C343 351 300 351 257.2 351C214.3 351 171.7 351 128.8 351C86 351 43 351 21.5 351L0 351Z" fill="#d4cbb4"></path><path d="M0 282L21.5 283.3C43 284.7 86 287.3 128.8 291.8C171.7 296.3 214.3 302.7 257.2 301.5C300 300.3 343 291.7 385.8 290.2C428.7 288.7 471.3 294.3 514.2 297C557 299.7 600 299.3 642.8 300.3C685.7 301.3 728.3 303.7 771.2 302C814 300.3 857 294.7 878.5 291.8L900 289L900 351L878.5 351C857 351 814 351 771.2 351C728.3 351 685.7 351 642.8 351C600 351 557 351 514.2 351C471.3 351 428.7 351 385.8 351C343 351 300 351 257.2 351C214.3 351 171.7 351 128.8 351C86 351 43 351 21.5 351L0 351Z" fill="#fde9d7"></path></svg>